<svg class="codeBOX-logo" version="1.1" id="Layer_1" xmlns="http://www.w3.org/2000/svg" xmlns:xlink="http://www.w3.org/1999/xlink" x="0px" y="0px"
	 width="732.316px" height="184.497px" viewBox="0 0 732.316 184.497" enable-background="new 0 0 732.316 184.497"
	 xml:space="preserve">
<g>
  <g class="letters">
	<path d="M30.462,139.127c-9.521,0-16.978-3.005-22.372-9.012C2.696,124.108,0,115.733,0,104.984
		C0,93.95,2.799,85.36,8.397,79.211c5.597-6.15,13.26-9.226,22.985-9.226c5.762,0,11.278,1.001,16.55,3.002l-1.655,5.395
		c-5.762-1.919-10.769-2.88-15.019-2.88c-8.173,0-14.364,2.523-18.572,7.57c-4.21,5.046-6.314,12.31-6.314,21.79
		c0,8.988,2.104,16.029,6.314,21.116c4.208,5.087,10.092,7.632,17.653,7.632c6.047,0,11.666-1.083,16.857-3.249V136
		C42.946,138.083,37.368,139.127,30.462,139.127z"/>
	<path d="M118.606,104.494c0,10.871-2.635,19.36-7.907,25.468c-5.271,6.109-12.545,9.165-21.821,9.165
		c-5.844,0-10.993-1.412-15.447-4.229c-4.455-2.821-7.866-6.866-10.236-12.137c-2.37-5.271-3.555-11.359-3.555-18.267
		c0-10.869,2.636-19.339,7.907-25.407c5.271-6.067,12.505-9.102,21.699-9.102c9.152,0,16.334,3.075,21.544,9.226
		C116.001,85.36,118.606,93.79,118.606,104.494z M66.015,104.494c0,9.153,2.013,16.295,6.038,21.423
		c4.024,5.129,9.715,7.693,17.07,7.693c7.355,0,13.045-2.564,17.07-7.693c4.025-5.128,6.038-12.27,6.038-21.423
		c0-9.194-2.032-16.326-6.098-21.392c-4.067-5.067-9.777-7.601-17.132-7.601c-7.355,0-13.025,2.523-17.01,7.57
		C68.007,88.118,66.015,95.26,66.015,104.494z"/>
	<path d="M238.685,139.127c-9.685,0-17.235-2.982-22.649-8.95c-5.416-5.966-8.122-14.321-8.122-25.068
		c0-10.625,2.615-19.134,7.846-25.532c5.231-6.394,12.278-9.591,21.146-9.591c7.846,0,14.037,2.738,18.573,8.213
		c4.537,5.476,6.804,12.913,6.804,22.312v4.903h-47.994c0.081,9.153,2.215,16.14,6.404,20.964
		c4.188,4.821,10.186,7.232,17.992,7.232c3.8,0,7.14-0.266,10.021-0.798c2.88-0.531,6.528-1.675,10.942-3.432v5.517
		c-3.76,1.635-7.232,2.748-10.421,3.339C246.04,138.829,242.525,139.127,238.685,139.127z M236.906,75.379
		c-6.416,0-11.563,2.116-15.447,6.343c-3.883,4.229-6.15,10.329-6.804,18.3h41.191c0-7.725-1.675-13.763-5.027-18.113
		C247.47,77.555,242.831,75.379,236.906,75.379z"/>
	<path d="M280.51,47.119h27.259c12.646,0,21.784,1.843,27.416,5.528c5.631,3.685,8.448,9.505,8.448,17.462
		c0,5.357-1.382,9.819-4.145,13.377c-2.764,3.558-6.743,5.8-11.935,6.721v0.629c6.448,1.215,11.19,3.609,14.227,7.191
		c3.036,3.581,4.554,8.426,4.554,14.54c0,8.248-2.879,14.708-8.637,19.376c-5.758,4.671-13.766,7.005-24.023,7.005H280.51V47.119z
		 M295.521,85.057h14.446c6.281,0,10.866-0.995,13.756-2.982c2.889-1.988,4.333-5.372,4.333-10.146c0-4.312-1.56-7.43-4.679-9.356
		c-3.12-1.926-8.071-2.889-14.855-2.889h-13.001V85.057z M295.521,97.241v29.081h15.953c6.28,0,11.023-1.203,14.227-3.611
		c3.202-2.406,4.804-6.208,4.804-11.399c0-4.775-1.632-8.312-4.898-10.616c-3.266-2.301-8.228-3.454-14.886-3.454H295.521z"/>
	<path d="M443.778,92.971c0,14.589-3.647,25.929-10.94,34.019c-7.295,8.091-17.623,12.138-30.986,12.138
		c-13.525,0-23.915-4.016-31.168-12.047c-7.254-8.028-10.88-19.439-10.88-34.231s3.647-26.152,10.94-34.081
		c7.295-7.927,17.704-11.891,31.23-11.891c13.322,0,23.619,4.026,30.893,12.076C440.142,67.002,443.778,78.343,443.778,92.971z
		 M375.373,92.971c0,11.033,2.227,19.401,6.682,25.102c4.452,5.699,11.053,8.552,19.797,8.552c8.705,0,15.273-2.822,19.707-8.461
		s6.65-14.037,6.65-25.192c0-10.993-2.196-19.327-6.588-25.008c-4.395-5.679-10.941-8.52-19.646-8.52
		c-8.786,0-15.415,2.841-19.891,8.52C377.61,73.644,375.373,81.978,375.373,92.971z"/>
	<path d="M530.917,138.901h-17.264l-22.977-37.542l-23.166,37.542h-16.069l30.447-47.585l-28.501-44.197h16.699
		l21.219,34.717l21.218-34.717h16.197l-28.689,44.446L530.917,138.901z"/>
	<path d="M183.158,47.307v19.184c0,4.945-0.122,10.816,0.124,15.816h-0.368c-2.778-5-5.925-7.592-9.439-9.348
		c-3.515-1.757-7.683-2.805-12.503-2.805c-9.194,0-16.203,2.959-21.025,9.047c-4.821,6.091-7.232,14.853-7.232,26.376
		c0,10.953,2.431,19.268,7.295,24.988c4.863,5.722,11.891,8.861,21.086,8.861c9.48,0,16.753-4.121,21.82-11.121h0.491l1.533,10h4.22
		v-91H183.158z M183.158,105.536c0,10.052-1.878,17.267-5.393,21.638c-3.515,4.372-9.092,6.559-16.61,6.559
		c-14.671,0-22.036-9.44-22.036-28.318c0-9.725,1.812-17.143,5.471-22.251c3.656-5.106,9.114-7.661,16.389-7.661
		c7.724,0,13.429,2.258,16.883,6.772c3.452,4.518,5.296,11.922,5.296,22.22V105.536z"/>
  </g><!-- .letters -->
	<g class="box">
		<polygon style='fill:#E74E4E;' class="box-left" points="639.978,184.497 547.638,138.57 547.638,47.043 639.978,0 		"/>
		<polygon style='fill:#EAEAEA;' class="bracket-left" points="638.759,143.328 580.29,113.918 638.759,84.51 638.759,63.101 559.747,103.354 559.747,103.585 
			559.747,124.251 559.747,124.482 638.759,164.736 		"/>
		<polygon style='fill:#DE3A39;' class="box-right" points="639.978,184.613 732.316,138.686 732.316,47.159 639.978,0.116 		"/>
		<polygon style='fill:#EAEAEA;' class="bracket-right" points="641.195,143.444 699.664,114.034 641.195,84.625 641.195,63.217 720.208,103.47 720.208,103.702 
			720.208,124.366 720.208,124.599 641.195,164.852 		"/>
	</g>
</g>
</svg>
