<svg width="194" height="37" viewBox="0 0 194 37" fill="none" xmlns="http://www.w3.org/2000/svg">
<path d="M36.4423 8.70117C33.6531 8.70117 30.9265 9.53075 28.6074 11.085C26.2883 12.6392 24.4807 14.8484 23.4133 17.433C22.346 20.0176 22.0667 22.8616 22.6108 25.6055C23.155 28.3493 24.4981 30.8696 26.4704 32.8478C28.4426 34.826 30.9555 36.1732 33.6911 36.7189C36.4267 37.2647 39.2622 36.9846 41.8391 35.914C44.416 34.8434 46.6185 33.0305 48.1681 30.7044C49.7177 28.3783 50.5448 25.6435 50.5448 22.8459C50.5448 19.0945 49.059 15.4967 46.4143 12.8441C43.7696 10.1914 40.1825 8.70117 36.4423 8.70117ZM36.4423 31.1777C34.8003 31.1777 33.1951 30.6893 31.8298 29.7743C30.4645 28.8593 29.4004 27.5588 28.772 26.0372C28.1437 24.5156 27.9792 22.8413 28.2996 21.226C28.6199 19.6107 29.4106 18.1269 30.5717 16.9623C31.7328 15.7977 33.2121 15.0047 34.8226 14.6833C36.4331 14.362 38.1024 14.5269 39.6195 15.1572C41.1365 15.7875 42.4331 16.8548 43.3454 18.2242C44.2577 19.5936 44.7446 21.2036 44.7446 22.8505C44.7446 25.059 43.8699 27.1771 42.3129 28.7387C40.7559 30.3004 38.6442 31.1777 36.4423 31.1777Z" fill="#292728"/>
<path d="M122.278 8.70117C119.489 8.70117 116.762 9.53075 114.443 11.085C112.124 12.6392 110.317 14.8484 109.249 17.433C108.182 20.0176 107.903 22.8616 108.447 25.6055C108.991 28.3493 110.334 30.8696 112.306 32.8478C114.279 34.826 116.791 36.1732 119.527 36.7189C122.263 37.2647 125.098 36.9846 127.675 35.914C130.252 34.8434 132.454 33.0305 134.004 30.7044C135.554 28.3783 136.381 25.6435 136.381 22.8459C136.381 19.0945 134.895 15.4967 132.25 12.8441C129.605 10.1914 126.018 8.70117 122.278 8.70117ZM122.278 31.1777C120.635 31.1813 119.029 30.696 117.661 29.7832C116.293 28.8704 115.226 27.5711 114.595 26.0498C113.964 24.5286 113.797 22.8537 114.115 21.2372C114.433 19.6207 115.223 18.1352 116.383 16.9688C117.543 15.8024 119.023 15.0075 120.634 14.6847C122.245 14.3619 123.915 14.5258 125.433 15.1555C126.951 15.7852 128.249 16.8525 129.162 18.2223C130.075 19.5921 130.562 21.2028 130.562 22.8505C130.562 25.0559 129.69 27.1711 128.137 28.7323C126.584 30.2934 124.477 31.1728 122.278 31.1777Z" fill="url(#paint0_linear_724_9230)"/>
<path d="M58.8525 8.70117C56.0633 8.70117 53.3367 9.53075 51.0176 11.085C48.6984 12.6392 46.8909 14.8484 45.8235 17.433C44.7561 20.0176 44.4768 22.8616 45.021 25.6055C45.5651 28.3493 46.9083 30.8696 48.8805 32.8478C50.8528 34.826 53.3656 36.1732 56.1012 36.7189C58.8368 37.2647 61.6724 36.9846 64.2493 35.914C66.8262 34.8434 69.0287 33.0305 70.5783 30.7044C72.1279 28.3783 72.9549 25.6435 72.9549 22.8459C72.9549 19.0945 71.4692 15.4967 68.8244 12.8441C66.1797 10.1914 62.5927 8.70117 58.8525 8.70117ZM58.8525 31.1777C57.2104 31.1777 55.6053 30.6893 54.24 29.7743C52.8747 28.8593 51.8106 27.5588 51.1822 26.0372C50.5538 24.5156 50.3894 22.8413 50.7097 21.226C51.0301 19.6107 51.8208 18.1269 52.9819 16.9623C54.143 15.7977 55.6223 15.0047 57.2328 14.6833C58.8433 14.362 60.5126 14.5269 62.0296 15.1572C63.5467 15.7875 64.8433 16.8548 65.7556 18.2242C66.6678 19.5936 67.1547 21.2036 67.1547 22.8505C67.1547 25.059 66.28 27.1771 64.7231 28.7387C63.1661 30.3004 61.0544 31.1777 58.8525 31.1777Z" fill="#292728"/>
<path d="M22.3638 23.7267C22.195 25.3272 21.5674 26.8443 20.5569 28.0945C19.5465 29.3447 18.1965 30.2744 16.6703 30.7712C15.1441 31.268 13.5071 31.3105 11.9572 30.8937C10.4074 30.4768 9.01125 29.6185 7.93763 28.4224C6.864 27.2264 6.15892 25.7439 5.90771 24.1544C5.65649 22.5648 5.86989 20.9363 6.5221 19.4659C7.17431 17.9955 8.23737 16.7461 9.58267 15.869C10.928 14.9918 12.4979 14.5245 14.1025 14.5235H14.289L19.1657 9.64125C16.4326 8.58859 13.4405 8.41521 10.6047 9.14516C7.76889 9.87511 5.22987 11.4722 3.3399 13.7149C1.44994 15.9576 0.30272 18.7346 0.0574133 21.6608C-0.187894 24.587 0.480871 27.5172 1.97093 30.0449C3.46098 32.5726 5.69845 34.5726 8.37293 35.7672C11.0474 36.9619 14.0263 37.2921 16.8963 36.712C19.7663 36.1318 22.3852 34.6702 24.3896 32.5298C26.3939 30.3894 27.6845 27.6763 28.0821 24.767L22.3638 23.7267Z" fill="#292728"/>
<path d="M80.9494 31.1689C79.3226 31.108 77.7496 30.5685 76.4263 29.6176C75.1029 28.6667 74.0877 27.3464 73.507 25.821C72.9262 24.2957 72.8057 22.6327 73.1603 21.0391C73.5149 19.4455 74.329 17.9918 75.5013 16.8588C76.6736 15.7259 78.1522 14.9639 79.7531 14.6676C81.354 14.3714 83.0064 14.5539 84.5046 15.1927C86.0028 15.8314 87.2806 16.898 88.1788 18.2597C89.0771 19.6214 89.5562 21.2181 89.5564 22.8509H95.3612C95.3605 20.0666 94.5406 17.3445 93.0043 15.0256C91.4679 12.7067 89.2834 10.8942 86.7245 9.81508C84.1656 8.73598 81.3461 8.43833 78.6193 8.95943C75.8924 9.48054 73.3796 10.7972 71.3955 12.7445C69.4115 14.6917 68.0446 17.183 67.466 19.9061C66.8874 22.6291 67.1229 25.4629 68.143 28.0523C69.1631 30.6417 70.9225 32.8715 73.2005 34.4625C75.4786 36.0534 78.1742 36.9346 80.9494 36.9956V31.1689Z" fill="#292728"/>
<path d="M72.9571 0H67.1523V23.5898H72.9571V0Z" fill="#292728"/>
<path d="M136.383 22.8506H130.578V36.9954H136.383V22.8506Z" fill="#830F17"/>
<path fill-rule="evenodd" clip-rule="evenodd" d="M137.234 0H143.039V11.4145C143.194 11.3016 143.35 11.1918 143.51 11.085C145.829 9.53075 148.555 8.70117 151.345 8.70117C155.085 8.70117 158.672 10.1914 161.317 12.8441C163.961 15.4967 165.447 19.0945 165.447 22.8459C165.447 25.6435 164.62 28.3783 163.07 30.7044C161.521 33.0305 159.318 34.8434 156.741 35.914C154.165 36.9846 151.329 37.2647 148.593 36.7189C145.858 36.1732 143.345 34.826 141.373 32.8478C139.4 30.8696 138.057 28.3493 137.513 25.6055C137.381 24.9378 137.297 24.2642 137.262 23.5898H137.234V0ZM143.039 22.9964C143.057 24.0367 143.27 25.0696 143.671 26.0403C144.3 27.5619 145.365 28.8621 146.731 29.7765C148.097 30.691 149.702 31.1786 151.345 31.1777C153.546 31.1765 155.656 30.2986 157.212 28.7371C158.768 27.1756 159.642 25.0582 159.642 22.8505C159.642 21.2034 159.155 19.5932 158.243 18.2237C157.33 16.8542 156.034 15.7869 154.516 15.1568C152.999 14.5266 151.329 14.362 149.719 14.6837C148.108 15.0054 146.629 15.7989 145.468 16.9639C144.307 18.129 143.517 19.6131 143.197 21.2288C143.1 21.7172 143.048 22.2111 143.039 22.7045V22.9964Z" fill="url(#paint1_linear_724_9230)"/>
<path d="M77.4648 22.8505L82.4962 17.188H94.1331L95.3659 22.8505H77.4648Z" fill="#292728"/>
<path fill-rule="evenodd" clip-rule="evenodd" d="M96.2734 0H102.078V23.5898H102.071L102.079 23.6035H102.116C102.298 25.6178 103.205 27.4966 104.667 28.8889C106.13 30.2811 108.048 31.0916 110.063 31.1687V37.0045C107.696 36.9525 105.379 36.3034 103.328 35.1171C101.277 33.9307 99.556 32.2454 98.325 30.2165C97.1081 28.211 96.4084 25.9336 96.2882 23.5898H96.2734V23.196C96.2682 22.9738 96.2682 22.7518 96.2734 22.5302V0Z" fill="url(#paint2_linear_724_9230)"/>
<path d="M193.599 27.0214C194.116 24.698 194.125 22.29 193.627 19.9627L172.477 19.917C172.591 19.4931 172.743 19.0806 172.932 18.6851C173.585 17.5491 174.496 16.5839 175.591 15.8681C176.687 15.1523 177.935 14.7061 179.235 14.566C180.535 14.4259 181.849 14.5958 183.071 15.0618C184.293 15.5279 185.387 16.2769 186.266 17.2478H193.09C191.96 14.5998 190.05 12.3611 187.617 10.8309C185.184 9.30072 182.343 8.55205 179.474 8.685C176.606 8.81796 173.846 9.82619 171.564 11.5749C169.282 13.3236 167.586 15.7294 166.705 18.4706C166.705 18.5162 166.704 18.5664 166.673 18.6121C166.671 18.6273 166.671 18.6425 166.673 18.6577C166.159 20.98 166.151 23.3863 166.65 25.7118L187.795 25.7575C187.681 26.1828 187.529 26.5968 187.34 26.994C186.688 28.1308 185.777 29.0968 184.681 29.8132C183.586 30.5296 182.338 30.9761 181.037 31.1162C179.737 31.2564 178.423 31.0862 177.201 30.6196C175.979 30.1529 174.884 29.4031 174.006 28.4313H167.182C168.313 31.0791 170.223 33.3176 172.656 34.8474C175.089 36.3772 177.93 37.1254 180.799 36.992C183.668 36.8585 186.428 35.8498 188.709 34.1006C190.991 32.3515 192.686 29.9453 193.567 27.2039V27.1765L193.622 27.0214H193.599Z" fill="url(#paint3_linear_724_9230)"/>
<defs>
<linearGradient id="paint0_linear_724_9230" x1="101.266" y1="7.09962" x2="161.193" y2="51.7482" gradientUnits="userSpaceOnUse">
<stop stop-color="#BE1E2D"/>
<stop offset="1" stop-color="#480000"/>
</linearGradient>
<linearGradient id="paint1_linear_724_9230" x1="130.322" y1="-2.09415" x2="200.684" y2="38.0085" gradientUnits="userSpaceOnUse">
<stop stop-color="#BE1E2D"/>
<stop offset="1" stop-color="#480000"/>
</linearGradient>
<linearGradient id="paint2_linear_724_9230" x1="92.8901" y1="-2.09493" x2="135.184" y2="9.686" gradientUnits="userSpaceOnUse">
<stop stop-color="#BE1E2D"/>
<stop offset="1" stop-color="#480000"/>
</linearGradient>
<linearGradient id="paint3_linear_724_9230" x1="159.492" y1="7.06567" x2="219.179" y2="50.6859" gradientUnits="userSpaceOnUse">
<stop stop-color="#BE1E2D"/>
<stop offset="1" stop-color="#480000"/>
</linearGradient>
</defs>
</svg>
